<svg xmlns="http://www.w3.org/2000/svg" xmlns:xlink="http://www.w3.org/1999/xlink" width="1080" zoomAndPan="magnify" viewBox="0 0 810 809.999993" height="1080" preserveAspectRatio="xMidYMid meet" version="1.0"><defs><clipPath id="990ce36f81"><path d="M 36 502 L 721 502 L 721 795.742188 L 36 795.742188 Z M 36 502 " clip-rule="nonzero"/></clipPath><clipPath id="9574c201c9"><path d="M 247 384.746094 L 349 384.746094 L 349 465 L 247 465 Z M 247 384.746094 " clip-rule="nonzero"/></clipPath><clipPath id="4bdf97464b"><path d="M 32.195312 544 L 107 544 L 107 638 L 32.195312 638 Z M 32.195312 544 " clip-rule="nonzero"/></clipPath><clipPath id="1112a51311"><path d="M 722 675 L 777.695312 675 L 777.695312 744 L 722 744 Z M 722 675 " clip-rule="nonzero"/></clipPath></defs><g clip-path="url(#990ce36f81)"><path fill="#ffffff" d="M 429.894531 773.285156 C 430.550781 774.445312 430.941406 775.214844 431.394531 775.921875 C 432.871094 778.207031 432.457031 780.402344 429.941406 781.441406 C 427.046875 782.640625 424.019531 783.589844 420.964844 784.335938 C 407.824219 787.558594 394.511719 789.917969 381.140625 791.894531 C 373.421875 793.03125 365.691406 794.035156 357.960938 795.035156 C 355.980469 795.292969 353.988281 795.339844 352.011719 795.558594 C 350.742188 795.695312 350.007812 795.21875 349.507812 794.046875 C 348.691406 792.140625 347.675781 790.320312 346.859375 788.414062 C 346.175781 786.792969 345.050781 786.363281 343.339844 786.363281 C 320.832031 786.339844 298.335938 786.316406 275.828125 786.15625 C 216.707031 785.753906 157.582031 785.351562 98.472656 784.835938 C 80.289062 784.679688 62.117188 784.203125 43.929688 783.847656 C 42.441406 783.824219 40.949219 783.617188 39.460938 783.542969 C 38.214844 783.480469 37.703125 782.6875 37.53125 781.636719 C 37.019531 778.609375 36.554688 775.566406 37.261719 772.503906 C 37.664062 770.742188 37.714844 770.644531 39.582031 770.632812 C 42.90625 770.621094 46.226562 770.671875 49.546875 770.707031 C 62.25 770.851562 74.953125 771 87.664062 771.144531 C 101.039062 771.304688 114.398438 771.402344 127.773438 771.621094 C 154.835938 772.074219 181.898438 772.539062 208.960938 773.113281 C 228.382812 773.515625 247.8125 773.992188 267.230469 774.613281 C 283.65625 775.140625 300.082031 775.824219 316.507812 776.617188 C 326.035156 777.082031 335.5625 777.886719 345.074219 778.570312 C 346.46875 778.667969 347.847656 778.902344 349.238281 779.058594 C 349.300781 778.890625 349.363281 778.730469 349.421875 778.558594 C 348.824219 778.289062 348.238281 777.972656 347.613281 777.753906 C 334.5 773.003906 321.101562 769.277344 307.433594 766.457031 C 293.609375 763.597656 279.652344 761.558594 265.628906 760.105469 C 249.105469 758.394531 232.546875 757.417969 215.9375 757.003906 C 197.996094 756.550781 180.066406 756.90625 162.140625 757.589844 C 149.78125 758.066406 137.433594 758.945312 125.109375 759.886719 C 113.605469 760.765625 102.113281 761.804688 90.644531 763.074219 C 79.59375 764.296875 68.589844 765.894531 57.558594 767.324219 C 57.085938 767.386719 56.609375 767.398438 55.921875 767.445312 C 56.167969 766.980469 56.265625 766.664062 56.460938 766.421875 C 65.207031 754.816406 73.9375 743.214844 82.742188 731.664062 C 84.195312 729.757812 85.859375 727.984375 87.589844 726.335938 C 99.082031 715.40625 110.613281 704.523438 122.140625 693.632812 C 122.617188 693.179688 123.167969 692.800781 123.691406 692.386719 C 123.632812 692.191406 123.570312 692.007812 123.507812 691.8125 C 115.742188 691.335938 107.976562 690.859375 99.753906 690.359375 C 101.808594 688.625 103.480469 687.171875 105.191406 685.753906 C 115.15625 677.484375 125.132812 669.230469 135.085938 660.9375 C 136.246094 659.972656 137.503906 659.507812 138.945312 659.484375 C 146.578125 659.351562 154.210938 658.996094 161.84375 659.191406 C 173.300781 659.472656 184.707031 660.707031 196.015625 662.5 C 205.761719 664.039062 215.449219 665.945312 225.15625 667.691406 C 225.460938 667.753906 225.78125 667.777344 226.242188 667.421875 C 225.011719 666.898438 223.8125 666.300781 222.554688 665.859375 C 205.03125 659.730469 187.566406 653.4375 169.953125 647.539062 C 150.15625 640.910156 130.164062 634.851562 110.015625 629.332031 C 109.402344 629.160156 108.816406 628.914062 108.074219 628.648438 C 109.722656 626.316406 111.722656 624.652344 113.945312 623.199219 C 123.816406 616.738281 134.011719 610.867188 144.453125 605.40625 C 163.054688 595.671875 182.144531 586.976562 201.511719 578.929688 C 202.195312 578.648438 202.855469 578.316406 203.957031 577.816406 C 199.59375 574.996094 195.296875 572.761719 191.09375 570.378906 C 186.773438 567.925781 182.375 565.59375 177.964844 563.285156 C 173.644531 561.023438 169.269531 558.863281 164.824219 556.617188 C 165.914062 551.71875 167.902344 547.675781 172.226562 544.914062 C 182.9375 538.078125 193.917969 531.726562 205.324219 526.132812 C 224.046875 516.949219 243.390625 509.328125 263.347656 503.308594 C 263.980469 503.113281 264.628906 502.941406 265.25 502.734375 C 266.839844 502.195312 268.257812 502.402344 269.757812 503.269531 C 277.035156 507.484375 283.839844 512.355469 290.300781 517.71875 C 308.570312 532.910156 323.910156 550.703125 337.113281 570.402344 C 353.84375 595.367188 366.558594 622.308594 376.535156 650.59375 C 384.414062 672.929688 390.359375 695.78125 394.941406 719.011719 C 395.097656 719.804688 395.316406 720.585938 395.648438 721.953125 C 396.257812 720.867188 396.636719 720.28125 396.917969 719.644531 C 404.636719 702.375 414.210938 686.207031 425.667969 671.148438 C 437.121094 656.089844 450.105469 642.484375 464.554688 630.269531 C 492.949219 606.261719 524.847656 588.417969 559.863281 576.109375 C 566.261719 573.859375 572.855469 572.113281 579.390625 570.246094 C 580.441406 569.953125 581.734375 569.953125 582.773438 570.28125 C 592.359375 573.238281 601.910156 576.289062 611.472656 579.332031 C 612.070312 579.515625 612.609375 579.84375 613.609375 580.308594 C 592.261719 589.136719 571.867188 598.847656 552.058594 609.777344 C 532.210938 620.734375 513.136719 632.871094 495.171875 646.832031 C 495.597656 646.683594 496.039062 646.5625 496.453125 646.378906 C 516.433594 636.953125 537.378906 630.480469 558.996094 626.117188 C 571.695312 623.554688 584.519531 621.929688 597.453125 620.988281 C 608.25 620.207031 619.03125 620.527344 629.816406 620.636719 C 631.417969 620.648438 632.675781 621.210938 633.847656 622.261719 C 640.101562 627.839844 646.390625 633.398438 652.667969 638.953125 C 654.253906 640.359375 655.867188 641.75 657.820312 643.449219 C 637.242188 645.378906 617.359375 648.910156 597.597656 653.160156 C 577.851562 657.410156 558.371094 662.671875 539.171875 668.925781 C 539.199219 669.109375 539.222656 669.304688 539.246094 669.488281 C 540.1875 669.4375 541.128906 669.449219 542.066406 669.339844 C 558.847656 667.300781 575.664062 666.933594 592.53125 667.824219 C 604.15625 668.4375 615.625 670.0625 626.921875 672.929688 C 631.527344 674.101562 635.460938 676.214844 639.148438 679.234375 C 648.980469 687.269531 659.03125 695.035156 668.984375 702.9375 C 671.378906 704.84375 673.710938 706.820312 676.519531 709.128906 C 666.933594 708.789062 657.859375 708.457031 648.28125 708.117188 C 648.90625 709.007812 649.1875 709.472656 649.527344 709.875 C 663.683594 726.386719 677.835938 742.898438 691.992188 759.421875 C 695.984375 764.085938 699.992188 768.753906 703.949219 773.453125 C 704.890625 774.566406 705.660156 775.8125 706.757812 777.324219 C 699.882812 776.605469 693.542969 775.945312 687.203125 775.273438 C 681.671875 774.6875 676.152344 774.078125 670.621094 773.515625 C 663.269531 772.757812 655.929688 772.027344 648.574219 771.316406 C 638.660156 770.363281 628.742188 769.4375 618.824219 768.53125 C 612.707031 767.972656 606.589844 767.433594 600.46875 766.933594 C 590.039062 766.089844 579.621094 765.246094 569.191406 764.476562 C 557.847656 763.648438 546.511719 762.757812 535.15625 762.144531 C 521.390625 761.414062 507.628906 760.863281 493.851562 760.375 C 476.996094 759.777344 460.144531 759.75 443.300781 760.605469 C 434.925781 761.035156 426.570312 761.742188 418.363281 763.585938 C 416.921875 763.902344 415.519531 764.367188 414.027344 764.785156 C 414.945312 766.042969 417.535156 767.066406 419.253906 767.117188 C 427.792969 767.371094 436.339844 767.640625 444.878906 767.945312 C 448.773438 768.082031 452.667969 768.3125 456.566406 768.484375 C 469.425781 769.058594 482.273438 769.59375 495.132812 770.195312 C 511.21875 770.9375 527.300781 771.734375 543.398438 772.476562 C 552.351562 772.894531 561.316406 773.246094 570.265625 773.664062 C 582.625 774.234375 594.972656 774.859375 607.332031 775.433594 C 616.457031 775.859375 625.578125 776.214844 634.703125 776.640625 C 646.976562 777.214844 659.25 777.839844 671.511719 778.414062 C 680.550781 778.828125 689.597656 779.183594 698.636719 779.597656 C 704.851562 779.878906 711.070312 780.207031 717.285156 780.539062 C 719.703125 780.671875 720.3125 781.34375 720.386719 783.761719 C 720.410156 784.679688 720.425781 785.59375 720.339844 786.496094 C 720.15625 788.441406 719.398438 789.171875 717.46875 789.183594 C 715.976562 789.195312 714.488281 789.039062 712.988281 788.964844 C 701.296875 788.34375 689.609375 787.71875 677.921875 787.109375 C 667.480469 786.558594 657.027344 786.023438 646.585938 785.449219 C 637.21875 784.933594 627.851562 784.371094 618.484375 783.847656 C 604.058594 783.042969 589.636719 782.273438 575.214844 781.453125 C 565.6875 780.917969 556.148438 780.316406 546.625 779.78125 C 532.945312 779 519.265625 778.265625 505.589844 777.484375 C 496.222656 776.949219 486.855469 776.375 477.5 775.835938 C 463.992188 775.054688 450.484375 774.273438 436.976562 773.492188 C 435.570312 773.40625 434.167969 773.246094 432.75 773.199219 C 431.96875 773.074219 431.1875 773.199219 429.894531 773.285156 Z M 411.476562 745.574219 C 412.808594 744.777344 414.1875 744.046875 415.457031 743.167969 C 424.640625 736.78125 434.472656 731.710938 445.0625 728.085938 C 458.933594 723.320312 473.296875 721.539062 487.878906 721.269531 C 503.511719 720.988281 519.058594 722.234375 534.496094 724.652344 C 545.460938 726.363281 556.441406 728.15625 567.3125 730.40625 C 583.785156 733.8125 600.164062 737.632812 616.578125 741.285156 C 639.464844 746.378906 662.351562 751.496094 685.238281 756.589844 C 685.652344 756.675781 686.082031 756.675781 686.898438 756.734375 C 686.128906 755.757812 685.640625 755.109375 685.117188 754.488281 C 672.609375 739.84375 660.066406 725.238281 647.648438 710.523438 C 645.988281 708.554688 644.277344 707.726562 641.738281 707.6875 C 632.1875 707.578125 622.648438 707.152344 613.109375 707.101562 C 590.871094 706.992188 568.617188 706.894531 546.378906 707.066406 C 536.339844 707.140625 526.300781 707.628906 516.285156 708.335938 C 506.613281 709.019531 496.953125 710.058594 487.328125 711.253906 C 478.183594 712.390625 469.167969 714.269531 460.460938 717.386719 C 443.121094 723.578125 427.476562 732.859375 412.867188 743.960938 C 412.320312 744.375 411.964844 745.046875 411.511719 745.609375 C 410.683594 745.574219 410.253906 746.023438 410.230469 746.941406 C 410.644531 746.488281 411.0625 746.023438 411.476562 745.574219 Z M 403 741.628906 C 403.230469 742.570312 403.722656 742.066406 404.050781 741.761719 C 405.832031 740.148438 407.578125 738.488281 409.375 736.890625 C 423.652344 724.113281 439.273438 713.183594 455.820312 703.5625 C 483.617188 687.390625 513.109375 675.117188 543.714844 665.457031 C 578.207031 654.5625 613.390625 646.867188 649.285156 642.421875 C 650.382812 642.289062 651.457031 642.03125 652.765625 641.800781 C 652.347656 641.3125 652.167969 641.042969 651.933594 640.835938 C 646.144531 635.730469 640.269531 630.710938 634.605469 625.484375 C 632.394531 623.445312 630.171875 622.136719 627.09375 622.417969 C 625.945312 622.527344 624.773438 622.285156 623.613281 622.246094 C 605.21875 621.699219 586.9375 623.078125 568.8125 626.144531 C 543.753906 630.382812 519.632812 637.734375 496.550781 648.417969 C 490.761719 651.09375 484.984375 653.816406 479.988281 657.933594 C 469.792969 666.324219 459.875 675.03125 450.472656 684.300781 C 433.570312 700.960938 418.132812 718.828125 405.210938 738.78125 C 404.539062 739.808594 403.707031 740.738281 402.9375 741.703125 C 403.195312 741.089844 403.414062 740.46875 403.722656 739.882812 C 415.042969 718.265625 429.355469 698.785156 446.027344 681.027344 C 469.5 656.039062 496.417969 635.363281 525.714844 617.714844 C 549.785156 603.21875 575.019531 591.066406 601.128906 580.710938 C 602.09375 580.332031 603.023438 579.882812 604.144531 579.394531 C 603.730469 579.050781 603.570312 578.84375 603.375 578.769531 C 599.039062 577.367188 594.703125 575.960938 590.34375 574.617188 C 587.183594 573.640625 584.007812 572.015625 580.832031 572.015625 C 577.558594 572.015625 574.261719 573.542969 571.011719 574.53125 C 543.714844 582.910156 518.144531 594.941406 494.265625 610.558594 C 468.191406 627.621094 445.425781 648.261719 426.621094 673.164062 C 414.152344 689.664062 403.964844 707.480469 396.015625 726.582031 C 395.746094 727.21875 395.402344 727.816406 394.878906 728.828125 C 394.414062 726.546875 394.023438 724.785156 393.707031 723.015625 C 390.273438 704.316406 385.78125 685.863281 380.175781 667.703125 C 371.308594 638.980469 359.777344 611.414062 344.355469 585.546875 C 332.054688 564.921875 317.71875 545.867188 300.351562 529.199219 C 290.984375 520.210938 280.933594 512.074219 269.746094 505.40625 C 268.207031 504.492188 266.851562 504.257812 265.082031 504.785156 C 248.921875 509.597656 233.179688 515.472656 217.792969 522.359375 C 202.390625 529.246094 187.554688 537.171875 173.507812 546.539062 C 172.738281 547.054688 171.703125 547.371094 171.324219 548.53125 C 172.007812 548.847656 172.605469 549.117188 173.191406 549.375 C 204.566406 563.257812 234.132812 580.261719 261.699219 600.714844 C 283.230469 616.691406 303.125 634.496094 321.589844 653.902344 C 339.347656 672.578125 355.917969 692.238281 370.332031 713.660156 C 379.84375 727.816406 388.257812 742.554688 394.621094 758.421875 C 394.730469 758.6875 395 758.898438 395.28125 759.226562 C 395.878906 758.738281 396.40625 758.359375 396.882812 757.90625 C 400.3125 754.648438 403.722656 751.375 407.164062 748.113281 C 419.097656 736.816406 431.90625 726.765625 446.964844 719.851562 C 459.765625 713.976562 472.941406 709.410156 486.9375 707.347656 C 500.996094 705.269531 515.125 704 529.304688 703.378906 C 542.078125 702.816406 554.867188 702.484375 567.640625 702.386719 C 579.84375 702.289062 592.054688 702.582031 604.253906 702.777344 C 612.558594 702.914062 620.851562 703.132812 629.15625 703.390625 C 634.214844 703.546875 639.28125 703.816406 644.335938 704.074219 C 651.886719 704.453125 659.421875 704.855469 666.96875 705.246094 C 667.261719 705.257812 667.554688 705.160156 668.226562 705.0625 C 667.542969 704.402344 667.140625 703.925781 666.664062 703.546875 C 656.476562 695.425781 646.242188 687.34375 636.09375 679.171875 C 633.847656 677.363281 631.417969 676.105469 628.667969 675.3125 C 615.015625 671.378906 601.03125 669.816406 586.886719 669.351562 C 569.839844 668.789062 552.863281 669.71875 535.949219 671.894531 C 531.257812 672.492188 526.59375 673.136719 522.113281 674.824219 C 510.398438 679.246094 498.808594 683.960938 487.453125 689.246094 C 455.855469 703.964844 426.765625 722.40625 401.730469 746.878906 C 401.449219 747.148438 401.09375 747.355469 400.667969 747.671875 C 400.253906 747.171875 399.921875 746.78125 399.703125 746.527344 C 400.863281 744.753906 401.925781 743.191406 403 741.628906 Z M 113.078125 626.265625 C 114.546875 626.65625 115.414062 626.902344 116.292969 627.121094 C 136.0625 632.078125 155.691406 637.550781 175.183594 643.523438 C 209.976562 654.183594 244.390625 665.910156 277.792969 680.40625 C 296.785156 688.648438 315.933594 696.625 333.105469 708.46875 C 337.953125 711.816406 343.011719 714.871094 347.796875 718.289062 C 358.421875 725.886719 368.460938 734.179688 376.679688 744.449219 C 377.011719 744.863281 377.4375 745.183594 377.828125 745.546875 C 377.828125 744.632812 377.523438 743.898438 377.15625 743.203125 C 366.019531 722.308594 352.367188 703.15625 336.890625 685.277344 C 322.53125 668.679688 306.871094 653.367188 290.238281 639.050781 C 263.933594 616.433594 235.609375 596.648438 205.984375 578.902344 C 204.90625 579.441406 203.894531 580.015625 202.84375 580.480469 C 191.386719 585.523438 179.847656 590.359375 168.488281 595.613281 C 150.195312 604.085938 132.304688 613.34375 115.484375 624.542969 C 114.8125 624.996094 114.179688 625.472656 113.078125 626.265625 Z M 107.207031 686.683594 C 107.289062 686.851562 107.375 687.023438 107.472656 687.195312 C 108.121094 687.230469 108.769531 687.28125 109.414062 687.304688 C 116.132812 687.523438 122.863281 687.597656 129.566406 688 C 140.082031 688.636719 150.585938 689.417969 161.089844 690.273438 C 168.441406 690.871094 175.792969 691.566406 183.121094 692.445312 C 191.265625 693.425781 199.386719 694.597656 207.507812 695.769531 C 222.03125 697.855469 236.441406 700.554688 250.753906 703.816406 C 271.957031 708.652344 292.765625 714.746094 312.820312 723.234375 C 327.378906 729.402344 341.386719 736.609375 353.878906 746.378906 C 359.828125 751.03125 365.875 755.527344 372.089844 759.8125 C 372.710938 760.242188 373.605469 760.632812 374.3125 760.546875 C 376.179688 760.324219 378.011719 759.824219 380.285156 759.347656 C 378.378906 756.453125 376.71875 753.695312 374.8125 751.105469 C 369.574219 743.949219 363.003906 738.085938 356.101562 732.601562 C 343.585938 722.660156 329.941406 714.441406 315.910156 706.882812 C 292.816406 694.449219 268.816406 683.960938 244.453125 674.285156 C 243.074219 673.738281 241.65625 673.175781 240.214844 672.871094 C 230.152344 670.769531 220.101562 668.644531 210.011719 666.726562 C 194.515625 663.769531 178.871094 661.890625 163.105469 661.046875 C 155.46875 660.644531 147.835938 660.632812 140.214844 661.328125 C 138.347656 661.5 136.722656 662.097656 135.246094 663.320312 C 126.515625 670.597656 117.746094 677.839844 109 685.09375 C 108.378906 685.609375 107.792969 686.144531 107.207031 686.683594 Z M 126.671875 691.652344 C 125.230469 693.179688 124.207031 694.363281 123.070312 695.4375 C 112.285156 705.648438 101.464844 715.847656 90.667969 726.042969 C 90.058594 726.628906 89.484375 727.253906 88.496094 728.265625 C 89.644531 728.167969 90.121094 728.15625 90.609375 728.097656 C 97.03125 727.316406 103.433594 726.351562 109.867188 725.777344 C 119.785156 724.882812 129.714844 724.078125 139.65625 723.578125 C 154.824219 722.808594 169.992188 722.074219 185.171875 721.792969 C 203.929688 721.441406 222.691406 721.367188 241.425781 722.671875 C 256.25 723.699219 270.992188 725.300781 285.648438 727.804688 C 301.109375 730.441406 316.3125 734.152344 331.175781 739.210938 C 331.761719 739.40625 332.386719 739.527344 332.996094 739.6875 C 333.058594 739.539062 333.128906 739.378906 333.191406 739.234375 C 332.128906 738.660156 331.066406 738.050781 329.992188 737.5 C 308.667969 726.726562 286.246094 718.898438 263.210938 712.734375 C 233.914062 704.890625 204.101562 699.773438 174.007812 696.320312 C 158.195312 694.488281 142.316406 693.179688 126.671875 691.652344 Z M 416.238281 768.800781 C 410.363281 768.253906 404.613281 767.582031 398.835938 767.226562 C 389.859375 766.664062 380.945312 767.25 372.1875 769.472656 C 365.507812 771.171875 359.386719 773.96875 354.308594 778.753906 C 352.78125 780.195312 352.746094 780.292969 353.585938 782.148438 C 354.101562 783.273438 354.710938 784.359375 355.273438 785.472656 C 356.003906 786.9375 357.054688 787.707031 358.828125 787.523438 C 362.855469 787.121094 366.921875 786.9375 370.953125 786.535156 C 383.324219 785.289062 395.574219 783.296875 407.777344 780.929688 C 410.621094 780.378906 413.441406 779.707031 416.238281 778.949219 C 418.265625 778.402344 418.632812 777.691406 418.132812 775.675781 C 417.59375 773.515625 416.960938 771.378906 416.238281 768.800781 Z M 416.238281 768.800781 " fill-opacity="1" fill-rule="nonzero"/></g><g clip-path="url(#9574c201c9)"><path fill="#ffffff" d="M 247.714844 435.464844 C 248.25 434.058594 248.691406 432.925781 249.179688 431.652344 C 250.316406 431.949219 251.316406 432.191406 252.550781 432.507812 C 257.03125 419.171875 261.488281 405.933594 265.960938 392.660156 C 264.714844 392.085938 263.710938 391.609375 262.417969 391.011719 C 264.203125 389.652344 265.484375 390.886719 266.765625 391.15625 C 268.207031 391.449219 269.574219 392.023438 271.136719 392.535156 C 271.761719 390.914062 272.3125 389.457031 272.921875 387.835938 C 271.921875 387.164062 271.578125 386.257812 272.480469 384.902344 C 275.71875 385.476562 278.769531 386.882812 282.191406 387.96875 C 281.921875 388.675781 281.835938 389.640625 281.46875 389.753906 C 278.90625 390.570312 279.417969 393.011719 278.296875 395.039062 C 281.300781 396.003906 284.070312 396.910156 287.027344 397.859375 C 287.566406 396.335938 288.039062 395.113281 288.40625 393.867188 C 288.503906 393.527344 288.46875 392.914062 288.234375 392.730469 C 287.0625 391.730469 287.894531 391.046875 288.554688 390.082031 C 291.679688 391.15625 294.769531 392.21875 297.664062 393.21875 C 298.371094 395.566406 295.855469 395.039062 295.539062 396.359375 C 295.234375 397.628906 294.722656 398.839844 294.21875 400.339844 C 297.128906 401.304688 299.828125 402.210938 302.746094 403.175781 C 303.320312 401.71875 303.84375 400.523438 304.234375 399.277344 C 304.355469 398.886719 304.1875 398.335938 304.003906 397.921875 C 303.539062 396.871094 303.503906 396.882812 304.382812 395.394531 C 307.433594 396.445312 310.523438 397.507812 313.921875 398.667969 C 313.625 399.398438 313.503906 400.351562 313.136719 400.460938 C 310.535156 401.257812 311.039062 403.675781 310.046875 405.640625 C 312.96875 406.628906 315.691406 407.546875 318.597656 408.535156 C 319.160156 407.070312 319.695312 405.789062 320.125 404.480469 C 320.234375 404.164062 320.148438 403.566406 319.929688 403.382812 C 318.683594 402.40625 319.597656 401.683594 320.136719 400.71875 C 323.324219 401.792969 326.4375 402.84375 329.859375 403.992188 C 329.46875 404.773438 329.308594 405.652344 328.894531 405.800781 C 326.378906 406.703125 326.851562 409.058594 325.839844 411.015625 C 328.878906 412.015625 331.59375 412.894531 334.5 413.847656 C 335.046875 412.308594 335.597656 411.027344 335.925781 409.683594 C 336.039062 409.269531 335.574219 408.707031 335.367188 408.207031 C 334.902344 407.046875 335.5625 405.96875 336.636719 406.300781 C 339.628906 407.214844 342.558594 408.277344 345.699219 409.339844 C 345.367188 410.050781 345.257812 410.746094 344.964844 410.84375 C 342.742188 411.578125 342.621094 413.605469 342.058594 415.351562 C 341.984375 415.582031 341.949219 415.828125 341.875 416.15625 C 343.902344 417.609375 346.796875 417.28125 348.726562 419.269531 C 347.433594 420.554688 346.296875 419.0625 344.78125 419.429688 C 340.398438 432.449219 335.941406 445.664062 331.410156 459.097656 C 332.558594 459.535156 333.523438 459.902344 334.730469 460.367188 C 334.316406 461.660156 333.925781 462.871094 333.460938 464.3125 C 304.808594 454.664062 276.339844 445.089844 247.714844 435.464844 Z M 293.84375 401.867188 C 293.425781 402.894531 293.085938 403.636719 292.828125 404.40625 C 290.65625 410.855469 288.515625 417.304688 286.34375 423.742188 C 285.257812 426.964844 284.21875 430.199219 283.035156 433.375 C 282.226562 435.550781 281.300781 436.003906 279.285156 435.820312 C 277 435.597656 274.898438 433.644531 275.960938 430.714844 C 278.539062 423.628906 280.871094 416.449219 283.277344 409.304688 C 284.363281 406.105469 285.402344 402.878906 286.539062 399.425781 C 283.632812 398.449219 280.921875 397.542969 278.015625 396.566406 C 277.574219 397.691406 277.171875 398.582031 276.867188 399.496094 C 273.863281 408.460938 270.871094 417.425781 267.851562 426.390625 C 267.535156 427.332031 267.207031 428.296875 266.691406 429.125 C 265.765625 430.664062 264.273438 430.984375 262.320312 430.238281 C 260.367188 429.480469 259.585938 428.296875 259.964844 426.453125 C 260.183594 425.402344 260.550781 424.375 260.890625 423.363281 C 263.847656 414.554688 266.800781 405.761719 269.746094 396.957031 C 270.050781 396.054688 270.269531 395.113281 270.5625 394.085938 C 269.390625 393.695312 268.488281 393.390625 267.449219 393.050781 C 262.917969 406.496094 258.449219 419.722656 253.929688 433.132812 C 279.359375 441.691406 304.515625 450.167969 329.957031 458.730469 C 334.511719 445.222656 339.140625 431.984375 343.476562 418.453125 C 342.511719 418.230469 341.910156 418.097656 341.226562 417.953125 C 340.933594 418.722656 340.679688 419.320312 340.457031 419.941406 C 337.550781 428.578125 334.644531 437.222656 331.726562 445.859375 C 331.25 447.273438 330.824219 448.714844 330.125 450.023438 C 329.746094 450.742188 328.953125 451.488281 328.183594 451.730469 C 325.328125 452.625 322.8125 450.316406 323.335938 447.371094 C 323.445312 446.726562 323.691406 446.101562 323.910156 445.46875 C 326.988281 436.367188 330.078125 427.257812 333.15625 418.160156 C 333.4375 417.316406 333.644531 416.449219 333.9375 415.386719 C 331.042969 414.410156 328.34375 413.492188 325.496094 412.527344 C 325.144531 413.394531 324.824219 414.054688 324.582031 414.75 C 322.113281 422.054688 319.671875 429.371094 317.21875 436.671875 C 316.375 439.191406 315.570312 441.71875 314.605469 444.183594 C 313.859375 446.101562 312.636719 446.808594 311 446.601562 C 308.179688 446.234375 306.824219 444.195312 307.628906 441.460938 C 307.789062 440.898438 308.007812 440.363281 308.191406 439.8125 C 311.195312 430.945312 314.199219 422.066406 317.191406 413.199219 C 317.523438 412.210938 317.765625 411.183594 318.070312 410.0625 C 315.078125 409.058594 312.367188 408.15625 309.558594 407.214844 C 309.230469 408.070312 308.972656 408.667969 308.765625 409.292969 C 306.605469 415.742188 304.441406 422.175781 302.292969 428.625 C 301.21875 431.851562 300.203125 435.097656 299.042969 438.285156 C 298.019531 441.082031 296.554688 441.804688 294.097656 440.960938 C 291.679688 440.128906 291.019531 438.589844 291.898438 435.820312 C 292.023438 435.429688 292.167969 435.039062 292.304688 434.644531 C 295.308594 425.78125 298.324219 416.914062 301.316406 408.035156 C 301.65625 407.03125 301.867188 405.996094 302.195312 404.785156 C 299.421875 403.796875 296.785156 402.878906 293.84375 401.867188 Z M 293.84375 401.867188 " fill-opacity="1" fill-rule="nonzero"/></g><path fill="#ffffff" d="M 446.636719 475.230469 C 448.359375 471.773438 449.972656 468.511719 451.632812 465.191406 C 451.230469 464.664062 450.875 464.226562 450.558594 463.761719 C 449.640625 462.417969 449.738281 460.625 450.800781 459.121094 C 451.765625 457.765625 452.925781 457.410156 454.746094 457.960938 C 455.453125 458.167969 456.136719 458.4375 456.957031 458.730469 C 458.019531 456.714844 459.042969 454.773438 460.15625 452.660156 C 463.527344 454.332031 466.691406 455.898438 470.035156 457.558594 C 468.9375 459.792969 467.972656 461.757812 466.972656 463.796875 C 469.011719 465.203125 471.417969 466.242188 470.21875 469.269531 C 469.363281 471.417969 468.214844 471.992188 465.027344 471.785156 C 463.355469 475.09375 461.644531 478.464844 459.875 481.945312 C 460.597656 482.703125 461.253906 483.328125 461.839844 484.011719 C 467.398438 490.410156 469.867188 497.773438 468.035156 506.140625 C 466.089844 515.066406 460.144531 520.292969 451.460938 522.480469 C 437.683594 525.960938 422.46875 517.4375 418.15625 503.929688 C 414.394531 492.144531 420.855469 479.929688 432.898438 476.085938 C 436.253906 475.007812 439.6875 474.582031 443.21875 474.925781 C 444.28125 475.070312 445.34375 475.132812 446.636719 475.230469 Z M 453.230469 465.714844 C 451.15625 469.734375 449.273438 473.398438 447.371094 477.074219 C 439.199219 475.402344 431.945312 476.828125 425.507812 482.105469 C 427.707031 485.609375 430.527344 487.882812 434.449219 488.613281 C 436.316406 488.957031 438.199219 489.324219 440.078125 489.566406 C 446.210938 490.347656 451.546875 492.695312 455.796875 497.308594 C 456.625 498.214844 457.589844 499.042969 458.59375 499.765625 C 461 501.460938 463.710938 502.246094 466.703125 502.367188 C 467.203125 499.949219 466.75 497.75 466.25 495.589844 C 465.027344 490.226562 461.855469 486.039062 457.933594 482.433594 C 459.863281 478.539062 461.683594 474.839844 463.625 470.90625 C 460.09375 469.136719 456.796875 467.488281 453.230469 465.714844 Z M 453.660156 459.292969 C 452.375 459.414062 451.839844 460.21875 451.472656 461.183594 C 451.105469 462.160156 451.605469 462.785156 452.425781 463.199219 C 456.917969 465.496094 461.425781 467.792969 465.945312 470.027344 C 467.117188 470.601562 468.046875 470.171875 468.644531 469.0625 C 469.230469 467.988281 468.972656 467.179688 467.765625 466.375 C 467.351562 466.105469 466.910156 465.875 466.46875 465.640625 C 462.707031 463.738281 458.933594 461.820312 455.160156 459.925781 C 454.648438 459.683594 454.097656 459.488281 453.660156 459.292969 Z M 443.179688 509.472656 C 445.097656 509.597656 447.0625 507.898438 447.273438 505.910156 C 447.492188 503.882812 445.734375 501.867188 443.609375 501.683594 C 441.617188 501.511719 439.566406 503.390625 439.503906 505.46875 C 439.441406 507.375 441.25 509.351562 443.179688 509.472656 Z M 465.519531 463.164062 C 466.347656 461.40625 467.070312 459.878906 467.839844 458.265625 C 465.359375 457.058594 463.148438 455.96875 460.707031 454.785156 C 459.910156 456.421875 459.203125 457.875 458.398438 459.523438 C 460.742188 460.734375 462.929688 461.84375 465.519531 463.164062 Z M 430.84375 494.109375 C 430.859375 492.914062 429.453125 491.621094 428.171875 491.65625 C 426.984375 491.691406 425.839844 492.851562 425.765625 494.097656 C 425.679688 495.464844 426.828125 496.625 428.242188 496.625 C 429.527344 496.625 430.832031 495.355469 430.84375 494.109375 Z M 456.332031 504.371094 C 456.320312 503.160156 455.1875 501.988281 454 501.964844 C 452.707031 501.925781 451.484375 503.171875 451.535156 504.492188 C 451.582031 505.738281 452.730469 506.789062 453.988281 506.75 C 455.246094 506.703125 456.347656 505.589844 456.332031 504.371094 Z M 439.332031 496.113281 C 438.589844 495.660156 438.101562 495.148438 437.734375 495.210938 C 437.316406 495.28125 437 495.90625 436.648438 496.285156 C 437.039062 496.613281 437.429688 497.1875 437.832031 497.210938 C 438.210938 497.226562 438.625 496.652344 439.332031 496.113281 Z M 460.621094 511.085938 C 459.9375 510.511719 459.546875 509.925781 459.15625 509.925781 C 458.738281 509.925781 458.335938 510.488281 457.921875 510.792969 C 458.25 511.183594 458.53125 511.808594 458.933594 511.890625 C 459.3125 511.988281 459.8125 511.5 460.621094 511.085938 Z M 460.621094 511.085938 " fill-opacity="1" fill-rule="nonzero"/><path fill="#ffffff" d="M 643.617188 535.269531 C 641.761719 536.84375 631.234375 540.566406 625.640625 541.765625 C 625.554688 541.570312 625.347656 541.324219 625.40625 541.15625 C 625.933594 539.382812 624.980469 538.429688 623.636719 537.515625 C 617.3125 533.179688 610.265625 530.601562 602.828125 529.003906 C 596.574219 527.660156 590.257812 526.742188 583.835938 526.867188 C 576.53125 527 569.570312 528.746094 562.707031 531.078125 C 560.972656 531.664062 559.886719 532.777344 559.898438 535.023438 C 556.894531 533.265625 554.144531 531.652344 551.070312 529.84375 C 550.875 531.335938 550.691406 532.519531 550.566406 533.703125 C 550.203125 537.171875 549.847656 540.628906 549.515625 544.097656 C 549.40625 545.234375 549.210938 546.355469 549.921875 547.457031 C 550.25 547.96875 550.273438 548.738281 550.273438 549.386719 C 550.347656 554.199219 550.371094 559.007812 550.410156 563.820312 C 550.410156 564.054688 550.300781 564.296875 550.175781 564.824219 C 548.015625 564.542969 545.855469 564.273438 543.519531 563.96875 C 543.632812 563.222656 543.667969 562.660156 543.800781 562.125 C 544.742188 558.265625 545.671875 554.394531 546.660156 550.546875 C 547.015625 549.203125 547.539062 547.894531 547.964844 546.566406 C 548.160156 545.941406 548.382812 545.292969 548.441406 544.648438 C 548.882812 540.03125 549.222656 535.390625 549.726562 530.773438 C 549.859375 529.480469 549.433594 528.808594 548.355469 528.195312 C 546.867188 527.355469 545.460938 526.351562 543.972656 525.375 C 544.863281 523.910156 546.121094 523.679688 547.269531 523.285156 C 556.074219 520.355469 564.882812 517.460938 573.6875 514.519531 C 579.183594 512.6875 584.703125 510.890625 590.148438 508.925781 C 594.105469 507.496094 597.683594 507.921875 601.3125 510.074219 C 614 517.609375 626.761719 525.019531 639.488281 532.496094 C 640.882812 533.351562 642.1875 534.316406 643.617188 535.269531 Z M 643.617188 535.269531 " fill-opacity="1" fill-rule="nonzero"/><path fill="#ffffff" d="M 535.800781 451.707031 C 533.3125 452.976562 530.941406 454.136719 528.644531 455.433594 C 528.082031 455.75 527.707031 456.519531 527.398438 457.15625 C 526.042969 459.890625 523.554688 460.476562 521.039062 458.679688 C 520.488281 458.289062 519.742188 458.105469 519.058594 457.960938 C 518.179688 457.765625 517.238281 457.800781 516.359375 457.570312 C 513.488281 456.8125 511.914062 454.796875 511.730469 451.828125 C 511.546875 448.863281 512.183594 446.027344 513.464844 443.390625 C 514.957031 440.335938 516.652344 437.394531 518.277344 434.402344 C 518.667969 433.679688 519.109375 432.996094 519.632812 432.117188 C 517.921875 430.957031 516.296875 429.871094 514.5625 428.699219 C 514.089844 428.882812 513.550781 429.054688 513.027344 429.273438 C 510.886719 430.152344 508.945312 429.761719 507.25 428.269531 C 505.515625 426.746094 504.917969 424.777344 505.796875 422.652344 C 506.355469 421.296875 506.125 420.382812 505.367188 419.234375 C 504.707031 418.21875 504.316406 416.988281 504.011719 415.789062 C 503.488281 413.6875 504.132812 411.855469 505.6875 410.355469 C 507.480469 408.609375 509.742188 407.816406 512.144531 407.398438 C 516.347656 406.667969 520.574219 406.703125 524.796875 407.167969 C 525.445312 407.242188 526.09375 407.253906 526.949219 407.300781 C 527.21875 404.738281 527.535156 402.28125 527.667969 399.828125 C 527.691406 399.289062 527.132812 398.691406 526.765625 398.179688 C 524.859375 395.554688 525.59375 392.890625 528.644531 391.902344 C 529.636719 391.582031 530.183594 391.082031 530.585938 390.203125 C 530.867188 389.605469 531.234375 389.042969 531.636719 388.519531 C 533.957031 385.515625 536.949219 384.804688 540.148438 386.859375 C 541.921875 387.992188 543.617188 389.484375 544.875 391.179688 C 546.792969 393.769531 548.308594 396.652344 549.957031 399.425781 C 550.445312 400.253906 550.824219 401.160156 551.324219 402.183594 C 552.925781 401.355469 554.292969 400.609375 555.683594 399.914062 C 559.105469 398.191406 562.574219 396.617188 566.433594 396.1875 C 567.566406 396.066406 568.765625 396.042969 569.886719 396.199219 C 573.6875 396.738281 575.359375 398.703125 575.507812 402.5625 C 575.605469 405.1875 575.019531 407.71875 573.90625 410.050781 C 572.429688 413.1875 570.71875 416.230469 569.082031 419.308594 C 568.65625 420.101562 568.15625 420.859375 567.566406 421.824219 C 568.226562 422.285156 568.800781 422.714844 569.386719 423.105469 C 573.394531 425.667969 577.191406 428.492188 580.136719 432.265625 C 581.234375 433.679688 582.1875 435.304688 582.808594 436.980469 C 583.957031 440.082031 582.96875 442.769531 580.207031 444.515625 C 579.183594 445.160156 578.511719 445.785156 578.191406 447.089844 C 577.632812 449.398438 575.871094 450.707031 573.527344 451 C 571.378906 451.269531 569.558594 450.5 568.484375 448.558594 C 567.875 447.457031 567.105469 447.128906 565.894531 447.101562 C 564.015625 447.066406 562.144531 446.796875 560.128906 446.613281 C 559.875 449.144531 559.789062 451.464844 559.359375 453.710938 C 558.847656 456.46875 558.1875 459.21875 557.296875 461.882812 C 556.820312 463.335938 555.878906 464.714844 554.902344 465.910156 C 552.949219 468.316406 550.300781 468.804688 547.527344 467.460938 C 545.390625 466.425781 543.617188 464.875 542.3125 462.929688 C 540.457031 460.195312 538.808594 457.3125 537.109375 454.480469 C 536.609375 453.625 536.265625 452.695312 535.800781 451.707031 Z M 529.660156 423.226562 C 530.539062 427.488281 531.34375 431.640625 532.320312 435.746094 C 532.480469 436.394531 533.3125 437.101562 533.996094 437.371094 C 537.621094 438.773438 541.324219 439.996094 544.960938 441.375 C 546.171875 441.839844 547.015625 441.496094 547.855469 440.679688 C 550.726562 437.917969 553.597656 435.160156 556.492188 432.421875 C 557.234375 431.714844 557.40625 430.984375 557.199219 429.980469 C 556.417969 426.257812 555.722656 422.507812 555.011719 418.757812 C 554.769531 417.5 554.085938 416.71875 552.863281 416.289062 C 549.347656 415.058594 545.839844 413.800781 542.347656 412.503906 C 541.1875 412.078125 540.285156 412.273438 539.40625 413.113281 C 536.488281 415.9375 533.53125 418.722656 530.625 421.566406 C 530.183594 421.992188 529.976562 422.640625 529.660156 423.226562 Z M 566.113281 420.832031 C 569.253906 416.203125 572.183594 411.636719 573.46875 406.226562 C 573.699219 405.261719 573.859375 404.273438 573.882812 403.285156 C 574.015625 399.300781 571.902344 397.226562 567.910156 397.582031 C 562.074219 398.105469 557.078125 400.804688 552.144531 403.722656 C 553.375 407.621094 554.511719 411.320312 555.746094 414.984375 C 555.929688 415.535156 556.515625 416.058594 557.054688 416.339844 C 559.910156 417.828125 562.816406 419.222656 566.113281 420.832031 Z M 537.242188 450.839844 C 539.199219 455.308594 541.261719 459.460938 544.4375 462.929688 C 545.425781 464.019531 546.648438 464.945312 547.894531 465.738281 C 550.042969 467.097656 551.851562 466.972656 553.4375 465.019531 C 554.71875 463.457031 555.734375 461.5625 556.40625 459.644531 C 557.722656 455.871094 558.019531 451.867188 558.152344 447.886719 C 558.164062 447.347656 557.96875 446.796875 557.882812 446.320312 C 554.5 445.503906 551.277344 444.699219 548.050781 443.976562 C 547.464844 443.84375 546.648438 443.832031 546.207031 444.148438 C 543.265625 446.261719 540.382812 448.484375 537.242188 450.839844 Z M 519.523438 456.191406 C 520.988281 451.351562 524.101562 450.839844 527.65625 454.101562 C 530.050781 452.808594 532.492188 451.5 534.996094 450.144531 C 533.726562 446.261719 532.542969 442.574219 531.296875 438.910156 C 531.125 438.40625 530.671875 437.882812 530.210938 437.636719 C 527.230469 436.085938 524.210938 434.621094 521.074219 433.058594 C 517.703125 437.929688 514.832031 442.816406 513.539062 448.472656 C 513.304688 449.507812 513.195312 450.609375 513.257812 451.671875 C 513.429688 454.308594 515.027344 455.898438 517.65625 456.175781 C 518.242188 456.238281 518.816406 456.191406 519.523438 456.191406 Z M 520.339844 430.566406 C 520.792969 430.359375 520.988281 430.335938 521.085938 430.226562 C 523.210938 427.683594 525.335938 425.144531 527.398438 422.554688 C 527.71875 422.152344 527.902344 421.492188 527.875 420.96875 C 527.65625 417.414062 527.339844 413.871094 527.09375 410.320312 C 527.023438 409.292969 526.53125 408.878906 525.542969 408.765625 C 521.332031 408.316406 517.105469 407.984375 512.914062 408.863281 C 511.082031 409.242188 509.265625 409.925781 507.589844 410.78125 C 506.039062 411.578125 505.136719 413.066406 505.378906 414.898438 C 505.613281 416.621094 506.210938 418.246094 507.652344 419.539062 C 510.105469 418.585938 512.523438 418.269531 514.601562 420.308594 C 516.640625 422.285156 516.726562 424.644531 515.566406 427.292969 C 517.277344 428.480469 518.875 429.578125 520.339844 430.566406 Z M 578.386719 443.523438 C 581.308594 442.109375 582.394531 439.921875 581.125 437.148438 C 580.246094 435.234375 579.046875 433.304688 577.546875 431.863281 C 574.871094 429.296875 571.867188 427.0625 568.960938 424.742188 C 568.214844 424.144531 567.324219 423.726562 566.46875 423.203125 C 564.796875 425.253906 563.453125 427.28125 561.730469 428.917969 C 559.59375 430.933594 558.96875 433.132812 559.433594 435.988281 C 559.886719 438.824219 559.910156 441.730469 560.128906 444.867188 C 562.585938 445.050781 564.929688 445.222656 567.175781 445.394531 C 569.875 438.894531 573.664062 438.359375 578.386719 443.523438 Z M 528.730469 407.410156 C 532.335938 408.265625 535.535156 409.035156 538.746094 409.792969 C 538.988281 409.855469 539.257812 409.988281 539.480469 409.914062 C 540.308594 409.648438 541.226562 409.476562 541.921875 408.988281 C 544.09375 407.472656 546.195312 405.847656 548.308594 404.261719 C 548.808594 403.882812 549.285156 403.453125 549.871094 402.976562 C 548.929688 401.074219 548.210938 399.191406 547.136719 397.542969 C 545.4375 394.917969 543.777344 392.15625 541.605469 389.949219 C 537.585938 385.867188 534.386719 386.492188 531.539062 391.460938 C 531.503906 391.523438 531.515625 391.621094 531.503906 391.695312 C 534.53125 396.003906 534.191406 397.457031 529.328125 399.960938 C 529.148438 402.269531 528.949219 404.726562 528.730469 407.410156 Z M 554.023438 414.886719 C 552.816406 411.222656 551.777344 408.070312 550.605469 404.542969 C 547.671875 406.703125 545.121094 408.585938 542.238281 410.710938 C 546.21875 412.113281 549.773438 413.371094 554.023438 414.886719 Z M 536.460938 449.289062 C 538.160156 448.09375 539.464844 447.226562 540.722656 446.285156 C 542.007812 445.332031 543.398438 444.464844 544.472656 443.074219 C 540.625 441.691406 537.023438 440.398438 533.003906 438.945312 C 534.226562 442.574219 535.289062 445.746094 536.460938 449.289062 Z M 548.417969 442.476562 C 552.035156 443.230469 554.953125 444.234375 558.054688 444.367188 C 558.46875 440.628906 558.042969 435.660156 557.1875 434.230469 C 554.414062 436.832031 551.667969 439.421875 548.417969 442.476562 Z M 529.292969 419.6875 C 529.511719 419.710938 529.734375 419.722656 529.964844 419.746094 C 532.738281 417.058594 535.523438 414.386719 538.636719 411.367188 C 535.214844 410.625 532.199219 409.976562 528.742188 409.230469 C 528.9375 412.992188 529.121094 416.339844 529.292969 419.6875 Z M 528.390625 424.742188 C 528.207031 424.667969 528.011719 424.582031 527.828125 424.507812 C 525.945312 426.832031 524.066406 429.152344 522.027344 431.679688 C 524.957031 433.121094 527.523438 434.390625 530.390625 435.804688 C 529.671875 431.8125 529.023438 428.285156 528.390625 424.742188 Z M 558.898438 429.75 C 561.289062 427.074219 563.304688 424.875 564.917969 422.164062 C 562.121094 420.734375 559.59375 419.453125 556.613281 417.9375 C 557.40625 422.066406 558.089844 425.632812 558.898438 429.75 Z M 558.898438 429.75 " fill-opacity="1" fill-rule="nonzero"/><path fill="#ffffff" d="M 408.910156 606.25 C 410.816406 605.957031 412.597656 605.539062 414.40625 605.441406 C 419.402344 605.148438 423.261719 607.25 425.972656 611.390625 C 428.523438 615.296875 428.953125 619.476562 426.804688 623.652344 C 426.035156 625.152344 424.703125 626.386719 423.542969 627.671875 C 422.882812 628.390625 422.027344 628.941406 421.222656 629.601562 C 422.175781 631.589844 423.175781 633.484375 423.992188 635.449219 C 425.105469 638.085938 425.691406 640.8125 424.910156 643.691406 C 423.796875 647.832031 421.113281 650.472656 417.070312 651.59375 C 413.148438 652.683594 409.484375 651.960938 406.433594 649.117188 C 404.28125 647.113281 403.976562 644.253906 405.566406 641.886719 C 406.992188 639.75 409.605469 639.039062 412.195312 640.089844 C 415.445312 641.410156 416.457031 645.21875 414.320312 648.1875 C 413.855469 648.835938 413.296875 649.410156 412.722656 650.105469 C 419.230469 651.191406 424.457031 645.671875 423.308594 639.148438 C 422.75 636 421.148438 633.289062 419.730469 630.601562 C 416.800781 631.296875 414.027344 632.214844 411.183594 632.566406 C 406.40625 633.179688 401.707031 632.421875 397.429688 630.171875 C 392.472656 627.558594 390.117188 623.078125 389.601562 617.644531 C 389.125 612.636719 390.1875 607.875 392.742188 603.539062 C 394.585938 600.398438 396.625 597.359375 398.738281 594.390625 C 399.582031 593.207031 399.667969 592.289062 399.078125 591.007812 C 396.660156 585.621094 394.730469 580.066406 394.351562 574.105469 C 394.109375 570.257812 394.769531 566.691406 397.945312 563.722656 C 404.246094 569.085938 409.765625 574.8125 410.667969 583.496094 C 411.0625 587.207031 410.035156 590.738281 408.386719 594.046875 C 407.652344 595.527344 406.75 596.929688 405.871094 598.335938 C 405.441406 599.019531 405.234375 599.628906 405.675781 600.398438 C 406.761719 602.328125 407.824219 604.292969 408.910156 606.25 Z M 403.832031 600.558594 C 402.144531 603.269531 400.667969 605.453125 399.386719 607.75 C 397.785156 610.609375 396.90625 613.710938 396.734375 616.984375 C 396.382812 624.054688 400.363281 630.148438 407.910156 630.90625 C 411.78125 631.296875 415.164062 630.089844 418.109375 627.449219 C 415.628906 622.710938 413.296875 618.253906 410.964844 613.785156 C 407.519531 615.871094 406.640625 619.035156 408.507812 622.296875 C 409.070312 623.273438 409.730469 624.203125 410.667969 625.65625 C 409.496094 625.496094 408.8125 625.570312 408.300781 625.300781 C 400.238281 621 400.128906 613.125 405.6875 608.472656 C 406.238281 608.019531 406.75 607.519531 407.300781 607.019531 C 406.1875 604.953125 405.1875 603.074219 403.832031 600.558594 Z M 403.402344 571.648438 C 399.800781 575.144531 398.882812 585.21875 401.828125 589.710938 C 403.878906 586.71875 405.796875 583.742188 406.53125 580.222656 C 407.238281 576.792969 406.027344 573.945312 403.402344 571.648438 Z M 419.304688 625.839844 C 421.769531 622.199219 422.027344 618.5 420.257812 615.910156 C 418.695312 613.636719 415.664062 612.5625 412.671875 613.34375 C 414.847656 617.4375 416.996094 621.492188 419.304688 625.839844 Z M 413.773438 645.097656 C 413.84375 643.132812 412.011719 641.300781 409.984375 641.273438 C 407.957031 641.25 406.261719 642.828125 406.175781 644.78125 C 406.089844 646.722656 407.910156 648.503906 410 648.554688 C 412.039062 648.601562 413.710938 647.078125 413.773438 645.097656 Z M 413.773438 645.097656 " fill-opacity="1" fill-rule="nonzero"/><path fill="#ffffff" d="M 620.878906 557.496094 C 601.945312 547.164062 582.46875 543.632812 561.523438 550.777344 C 562.011719 545.136719 562.488281 539.664062 562.976562 534.132812 C 566.761719 532.582031 570.621094 531.640625 574.53125 530.957031 C 590.675781 528.136719 605.878906 530.894531 620.191406 538.796875 C 620.707031 539.078125 621.292969 539.296875 621.671875 539.699219 C 622.0625 540.128906 622.527344 540.789062 622.476562 541.300781 C 622.011719 546.589844 621.449219 551.863281 620.878906 557.496094 Z M 620.878906 557.496094 " fill-opacity="1" fill-rule="nonzero"/><path fill="#ffffff" d="M 132.667969 517.449219 C 135.492188 505.042969 138.3125 492.632812 141.207031 479.945312 C 150.390625 482.203125 159.367188 484.414062 168.515625 486.671875 C 168.023438 489.03125 167.621094 491.128906 167.160156 493.207031 C 164.53125 504.929688 161.90625 516.667969 159.257812 528.390625 C 158.097656 533.535156 154.492188 536.5 149.609375 536.292969 C 146.457031 536.160156 144.015625 534.695312 142.648438 531.835938 C 141.265625 528.953125 142.132812 526.328125 144.089844 523.996094 C 147.300781 520.160156 152.929688 519.671875 156.8125 522.847656 C 157.191406 523.152344 157.546875 523.496094 158.253906 524.117188 C 160.417969 515.386719 162.273438 506.898438 164.179688 498.03125 C 156.253906 496.039062 148.496094 494.085938 140.425781 492.058594 C 140.082031 493.328125 139.703125 494.5625 139.421875 495.820312 C 137.421875 504.796875 135.464844 513.796875 133.414062 522.761719 C 132.265625 527.746094 127.6875 530.75 122.765625 529.871094 C 119.957031 529.367188 117.78125 527.832031 116.78125 525.167969 C 115.765625 522.46875 116.5 519.941406 118.355469 517.753906 C 121.691406 513.820312 127.367188 513.359375 131.226562 516.714844 C 131.519531 516.972656 131.617188 517.460938 131.8125 517.839844 C 132.09375 517.707031 132.386719 517.582031 132.667969 517.449219 Z M 166.523438 487.917969 C 158.425781 485.902344 150.597656 483.972656 142.523438 481.972656 C 142.269531 483.277344 142.046875 484.425781 141.816406 485.621094 C 149.851562 487.613281 157.59375 489.542969 165.535156 491.523438 C 165.851562 490.347656 166.132812 489.335938 166.523438 487.917969 Z M 140.667969 490.472656 C 148.765625 492.460938 156.519531 494.367188 164.507812 496.332031 C 164.753906 495.101562 164.933594 494.183594 165.144531 493.132812 C 157.121094 491.144531 149.363281 489.226562 141.511719 487.285156 C 141.207031 488.433594 140.972656 489.296875 140.667969 490.472656 Z M 140.667969 490.472656 " fill-opacity="1" fill-rule="nonzero"/><g clip-path="url(#4bdf97464b)"><path fill="#ffffff" d="M 90.363281 544.867188 C 92.183594 545.160156 92.195312 546.039062 91.828125 547.125 C 91.097656 549.324219 90.402344 551.535156 89.679688 553.746094 C 88.519531 557.289062 87.335938 560.816406 86.136719 564.433594 C 90.609375 569.5 95.054688 574.519531 99.449219 579.492188 C 97.570312 585.15625 95.824219 590.675781 93.882812 596.125 C 93.257812 597.859375 93.589844 599.019531 94.773438 600.324219 C 98.621094 604.5625 102.34375 608.886719 106.117188 613.171875 C 105.019531 615.03125 104.8125 615.101562 103.542969 613.6875 C 100.097656 609.863281 96.617188 606.066406 93.332031 602.109375 C 91.9375 600.433594 90.695312 599.875 88.484375 600.421875 C 83.511719 601.667969 78.445312 602.546875 73.203125 603.621094 C 71.261719 609.460938 69.308594 615.335938 67.292969 621.441406 C 71.519531 626.265625 75.832031 631.1875 80.117188 636.097656 C 79.117188 637.917969 78.824219 638.027344 77.539062 636.621094 C 74.195312 632.933594 70.921875 629.183594 67.613281 625.460938 C 67.28125 625.09375 66.925781 624.726562 66.632812 624.324219 C 65.765625 623.089844 64.71875 622.785156 63.203125 623.140625 C 58.367188 624.261719 53.46875 625.167969 48.621094 626.277344 C 46.910156 626.667969 45.714844 626.4375 44.492188 625.007812 C 40.890625 620.78125 37.164062 616.652344 33.414062 612.550781 C 32.316406 611.339844 32.195312 610.21875 32.707031 608.714844 C 34.515625 603.464844 36.261719 598.199219 37.898438 592.898438 C 38.410156 591.25 39.265625 590.480469 40.9375 590.175781 C 46.066406 589.234375 51.171875 588.125 56.300781 587.148438 C 57.671875 586.890625 58.441406 586.292969 58.878906 584.914062 C 60.441406 579.929688 62.214844 575.019531 63.726562 570.027344 C 64.242188 568.351562 65.132812 567.632812 66.769531 567.328125 C 71.726562 566.386719 76.660156 565.261719 81.644531 564.371094 C 83.183594 564.101562 83.929688 563.417969 84.390625 561.988281 C 85.957031 557.175781 87.605469 552.402344 89.242188 547.628906 C 89.546875 546.722656 89.960938 545.832031 90.363281 544.867188 Z M 47.398438 624.089844 C 53.261719 622.882812 58.78125 621.785156 64.265625 620.5625 C 64.816406 620.441406 65.390625 619.621094 65.609375 619.011719 C 67.28125 614.164062 68.855469 609.277344 70.507812 604.429688 C 70.835938 603.464844 70.800781 602.707031 70.101562 601.925781 C 66.511719 597.90625 62.957031 593.863281 59.390625 589.824219 C 58.832031 589.1875 58.207031 589.054688 57.402344 589.222656 C 52.222656 590.335938 47.046875 591.445312 41.855469 592.496094 C 40.925781 592.679688 40.4375 593.058594 40.132812 593.976562 C 38.496094 598.921875 36.824219 603.855469 35.113281 608.777344 C 34.785156 609.742188 34.832031 610.5 35.515625 611.28125 C 39.046875 615.238281 42.539062 619.230469 46.066406 623.1875 C 46.457031 623.628906 47.082031 623.882812 47.398438 624.089844 Z M 90.949219 597.625 C 92.734375 592.277344 94.429688 587.074219 96.226562 581.921875 C 96.664062 580.664062 96.519531 579.785156 95.628906 578.792969 C 92.183594 574.972656 88.800781 571.089844 85.429688 567.203125 C 84.757812 566.421875 84.136719 566.203125 83.0625 566.445312 C 78.054688 567.582031 73.007812 568.621094 67.964844 569.597656 C 66.855469 569.816406 66.253906 570.222656 65.902344 571.355469 C 64.816406 574.835938 63.59375 578.28125 62.445312 581.738281 C 61.847656 583.546875 60.578125 585.511719 60.917969 587.136719 C 61.273438 588.871094 63.117188 590.324219 64.398438 591.824219 C 66.71875 594.535156 69.089844 597.199219 71.457031 599.875 C 72.117188 600.617188 72.742188 601.386719 73.960938 601.132812 C 79.566406 599.945312 85.160156 598.8125 90.949219 597.625 Z M 90.949219 597.625 " fill-opacity="1" fill-rule="nonzero"/></g><g clip-path="url(#1112a51311)"><path fill="#ffffff" d="M 757.625 715.285156 C 758.785156 715.1875 759.601562 714.941406 760.394531 716.042969 C 765.820312 723.589844 771.351562 731.050781 776.847656 738.550781 C 777.140625 738.941406 777.410156 739.355469 777.800781 739.929688 C 776.515625 740.933594 775.308594 741.898438 773.820312 743.058594 C 767.652344 734.65625 761.582031 726.386719 755.4375 718.019531 C 755.683594 717.582031 755.9375 717.105469 756.230469 716.542969 C 755.585938 715.699219 754.949219 714.859375 754.242188 713.953125 C 753.460938 714.429688 752.859375 714.808594 752.164062 715.234375 C 751.601562 714.515625 751.101562 713.894531 750.492188 713.097656 C 744.542969 715.480469 738.585938 715.652344 732.785156 712.5625 C 728.753906 710.410156 725.847656 707.175781 724.085938 702.988281 C 720.460938 694.351562 723.414062 684.363281 731.0625 679.183594 C 738.742188 673.980469 749.417969 675.03125 755.976562 681.6875 C 761.605469 687.402344 764.902344 698.359375 756.402344 708.945312 C 756.816406 709.570312 757.269531 710.214844 757.878906 711.132812 C 757.222656 711.546875 756.585938 711.949219 755.867188 712.414062 C 756.523438 713.5 757.027344 714.320312 757.625 715.285156 Z M 742.066406 679.746094 C 733.527344 679.695312 726.335938 686.65625 726.347656 695.074219 C 726.359375 703.535156 732.476562 710.925781 741.980469 711.035156 C 750.652344 711.132812 757.734375 703.964844 757.757812 695.425781 C 757.757812 686.78125 750.773438 679.792969 742.066406 679.746094 Z M 742.066406 679.746094 " fill-opacity="1" fill-rule="nonzero"/></g><path fill="#ffffff" d="M 736.851562 596.417969 C 735.789062 597.503906 734.835938 597.808594 733.589844 597.175781 C 732.355469 596.539062 731.207031 596.84375 730.253906 597.957031 C 729.558594 598.773438 728.742188 599.484375 727.972656 600.238281 C 725.808594 602.351562 725.808594 602.351562 722.867188 601.742188 C 723.0625 602.488281 723.246094 603.171875 723.464844 604.027344 C 721.765625 604.171875 720.339844 603.707031 719.019531 602.9375 C 719.054688 597.199219 714.695312 595.855469 711.472656 598.773438 C 704.609375 592.644531 701.164062 585.070312 702.054688 575.851562 C 703.058594 565.566406 708.699219 558.449219 718.3125 553.671875 C 717.089844 557.105469 717.320312 559.875 720.277344 561.5625 C 718.25 563.246094 716.210938 564.566406 714.648438 566.3125 C 708.515625 573.101562 708.503906 583.8125 714.464844 590.714844 C 715 591.335938 715.613281 591.921875 716.246094 592.449219 C 719.59375 595.195312 720.375 595.207031 724.34375 592.605469 C 724.199219 591.714844 722.976562 590.847656 724.0625 589.761719 C 725.1875 588.636719 726.238281 589.480469 727.289062 589.785156 C 728.335938 590.101562 729.425781 591.082031 730.121094 589.359375 C 733.894531 590.578125 737.59375 591.765625 741.285156 592.984375 C 742.542969 593.402344 744.105469 593.363281 744.472656 595.21875 C 744.53125 595.539062 745.449219 595.695312 745.972656 595.90625 C 746.902344 596.257812 747.867188 596.527344 748.746094 596.980469 C 749.441406 597.34375 749.84375 597.992188 749.429688 598.859375 C 749.027344 599.679688 748.441406 600.226562 747.464844 599.984375 C 746.828125 599.824219 746.230469 599.484375 745.59375 599.3125 C 745.058594 599.175781 744.375 598.945312 743.957031 599.152344 C 741.550781 600.375 739.71875 598.703125 737.71875 597.96875 C 737.375 597.847656 737.242188 597.164062 736.851562 596.417969 Z M 736.851562 596.417969 " fill-opacity="1" fill-rule="nonzero"/><path fill="#ffffff" d="M 657.625 473.910156 C 657.34375 473.359375 657.089844 472.871094 656.660156 472.066406 C 658.054688 471.066406 659.480469 470.027344 660.933594 468.964844 C 661.644531 469.429688 662.167969 469.78125 662.695312 470.136719 C 671.964844 464.03125 681.207031 458.007812 690.355469 451.878906 C 692.503906 450.4375 694.605469 449.546875 697.257812 449.679688 C 699.808594 449.800781 702.386719 449.507812 704.960938 449.410156 C 705.839844 449.375 706.722656 449.410156 707.941406 449.410156 C 707.6875 450.402344 707.625 451.035156 707.367188 451.585938 C 705.878906 454.820312 704.316406 458.023438 702.8125 461.257812 C 702.140625 462.699219 700.90625 463.503906 699.660156 464.335938 C 690.734375 470.210938 681.808594 476.109375 672.878906 481.996094 C 672.328125 482.363281 671.792969 482.753906 671.144531 483.203125 C 671.304688 483.742188 671.460938 484.265625 671.695312 484.988281 C 670.328125 485.914062 668.898438 486.878906 667.078125 488.113281 C 666.722656 487.40625 666.394531 486.722656 666.066406 486.050781 C 665.101562 486.648438 664.5625 487.003906 664 487.332031 C 662.15625 488.394531 660.996094 488.261719 659.691406 486.515625 C 658.101562 484.390625 656.613281 482.191406 655.207031 479.945312 C 653.851562 477.769531 654.132812 476.683594 656.160156 475.058594 C 656.625 474.679688 657.074219 474.324219 657.625 473.910156 Z M 666.320312 475.925781 C 676.054688 469.5 685.617188 463.1875 695.179688 456.875 C 694.265625 455.382812 693.507812 454.148438 692.664062 452.78125 C 683.027344 459.363281 673.257812 465.519531 663.644531 472.140625 C 664.648438 473.554688 665.441406 474.691406 666.320312 475.925781 Z M 696.585938 458.472656 C 686.875 464.875 677.25 471.210938 667.457031 477.671875 C 668.335938 479.015625 669.082031 480.152344 669.921875 481.433594 C 679.742188 474.972656 689.304688 468.683594 698.894531 462.371094 C 698.097656 461.027344 697.402344 459.828125 696.585938 458.472656 Z M 700.113281 460.621094 C 700.394531 460.636719 700.664062 460.648438 700.945312 460.660156 C 701.664062 459.109375 702.457031 457.59375 703.058594 456.007812 C 703.449219 454.96875 701.53125 451.78125 700.417969 451.695312 C 698.585938 451.574219 696.683594 451.328125 694.582031 452.527344 C 695.472656 453.515625 696.023438 454.542969 696.878906 454.980469 C 698.234375 455.675781 698.710938 456.652344 698.953125 458.058594 C 699.113281 458.949219 699.710938 459.769531 700.113281 460.621094 Z M 656.171875 477.5625 C 658.175781 480.628906 659.957031 483.351562 661.816406 486.183594 C 662.902344 485.511719 663.71875 485.011719 664.660156 484.425781 C 662.667969 481.433594 660.824219 478.660156 658.882812 475.753906 C 657.941406 476.390625 657.222656 476.867188 656.171875 477.5625 Z M 705.253906 451.292969 C 703.875 451.316406 703.339844 451.585938 703.742188 452.597656 C 703.8125 452.78125 704.082031 452.878906 704.402344 453.113281 C 704.667969 452.5625 704.875 452.097656 705.253906 451.292969 Z M 705.253906 451.292969 " fill-opacity="1" fill-rule="nonzero"/><path fill="#ffffff" d="M 727.875 529.0625 C 729.765625 528.929688 731.636719 528.796875 733.550781 528.660156 C 733.675781 530.992188 733.773438 533.214844 733.917969 535.4375 C 733.992188 536.609375 734.273438 537.625 735.117188 538.589844 C 735.898438 539.480469 736.289062 540.726562 736.910156 541.949219 C 737.558594 542.121094 738.339844 542.328125 738.804688 542.460938 C 738.621094 543.804688 738.242188 544.988281 738.328125 546.148438 C 738.828125 552.84375 739.425781 559.523438 740 566.214844 C 740.171875 568.265625 740.367188 570.332031 740.550781 572.359375 C 739.109375 573.117188 731.707031 573.898438 728.265625 573.605469 C 728.019531 570.417969 727.765625 567.167969 727.519531 564.054688 C 726.175781 563.175781 724.40625 564.417969 723.390625 562.503906 C 725.40625 561.074219 727.726562 559.792969 727.433594 556.652344 C 727.152344 553.648438 724.871094 552.648438 722.621094 551.449219 C 723.429688 550.117188 724.808594 550.644531 725.96875 550.082031 C 725.761719 547.96875 726.605469 545.625 724.355469 543.488281 C 726.824219 543.597656 726.980469 542.035156 727.335938 540.566406 C 727.484375 539.96875 727.847656 539.421875 728.070312 538.820312 C 728.277344 538.261719 728.59375 537.660156 728.558594 537.101562 C 728.398438 534.472656 728.117188 531.847656 727.875 529.0625 Z M 737.828125 564.726562 C 737.117188 558.214844 736.460938 552.085938 735.761719 545.734375 C 734.796875 545.808594 734.027344 545.867188 732.964844 545.964844 C 733.648438 552.5 734.015625 558.789062 735.054688 565.273438 C 736.070312 565.078125 736.835938 564.921875 737.828125 564.726562 Z M 732.039062 530.066406 C 730.976562 531.589844 731.074219 532.851562 732.355469 534.386719 C 733.371094 532.972656 733.273438 531.566406 732.039062 530.066406 Z M 733.453125 539.371094 C 733.160156 540.46875 732.832031 541.398438 734.101562 541.742188 C 734.417969 541.824219 735.175781 541.410156 735.226562 541.128906 C 735.46875 539.996094 734.785156 539.503906 733.453125 539.371094 Z M 733.453125 539.371094 " fill-opacity="1" fill-rule="nonzero"/><path fill="#ffffff" d="M 687.960938 422.226562 C 687.707031 422.933594 687.570312 423.496094 687.328125 424.007812 C 685.714844 427.304688 684.628906 430.773438 683.917969 434.378906 C 683.808594 434.9375 683.625 435.5 683.46875 436.0625 C 682.746094 438.714844 680.878906 440.140625 678.277344 440.351562 C 677.019531 440.449219 676.285156 440.949219 675.601562 441.828125 C 673.917969 443.988281 672.207031 446.125 670.546875 448.300781 C 669.996094 449.019531 669.421875 449.789062 669.128906 450.621094 C 667.238281 455.910156 663.769531 460.132812 660.105469 464.226562 C 654.5 470.480469 648.378906 476.207031 641.882812 481.519531 C 641.371094 481.933594 640.855469 482.433594 640.257812 482.65625 C 639.722656 482.851562 638.964844 482.875 638.464844 482.644531 C 637.71875 482.289062 637.535156 481.507812 637.839844 480.699219 C 638.046875 480.164062 638.28125 479.625 638.535156 479.101562 C 642.714844 470.601562 647.328125 462.34375 652.910156 454.675781 C 655.464844 451.183594 658.261719 447.910156 661.886719 445.429688 C 662.632812 444.929688 663.28125 444.246094 663.855469 443.550781 C 665.746094 441.242188 667.566406 438.871094 669.472656 436.5625 C 670.121094 435.78125 670.230469 435.050781 669.996094 434.046875 C 668.898438 429.492188 670.621094 425.890625 674.648438 423.605469 C 677.363281 422.066406 683.835938 421.015625 687.960938 422.226562 Z M 662.960938 446.847656 C 652.617188 455.714844 647.035156 467.546875 640.929688 479.078125 C 641.675781 478.867188 642.285156 478.515625 642.785156 478.050781 C 646.632812 474.519531 650.617188 471.125 654.230469 467.375 C 657.675781 463.8125 660.800781 459.925781 663.925781 456.078125 C 665.320312 454.371094 666.441406 452.414062 667.054688 450.09375 C 665.796875 449.09375 664.574219 448.128906 662.960938 446.847656 Z M 684.824219 423.679688 C 682.332031 423.496094 679.988281 423.570312 677.835938 424.472656 C 676.203125 425.15625 674.527344 426.085938 673.269531 427.320312 C 670.667969 429.835938 671.023438 433.695312 673.808594 436.015625 C 674.441406 436.539062 675.101562 437.050781 675.785156 437.503906 C 678.167969 439.078125 680.648438 438.296875 681.476562 435.585938 C 682.660156 431.714844 683.675781 427.808594 684.824219 423.679688 Z M 668.105469 448.117188 C 670.375 445.171875 672.574219 442.351562 674.820312 439.445312 C 673.660156 438.503906 672.769531 437.796875 671.707031 436.941406 C 669.375 439.921875 667.164062 442.753906 664.878906 445.6875 C 666.039062 446.566406 666.945312 447.25 668.105469 448.117188 Z M 668.105469 448.117188 " fill-opacity="1" fill-rule="nonzero"/><path fill="#ffffff" d="M 57.242188 425.21875 C 57.023438 425.316406 56.804688 425.414062 56.351562 425.609375 C 63.007812 435.890625 69.640625 446.136719 76.320312 456.457031 C 72.117188 460.316406 67.207031 462.578125 61.933594 464.761719 C 59.757812 451.21875 57.632812 437.929688 55.410156 424.09375 C 56.328125 424.707031 56.753906 424.984375 57.183594 425.277344 Z M 57.242188 425.21875 " fill-opacity="1" fill-rule="nonzero"/><path fill="#ffffff" d="M 57.183594 425.277344 C 57.949219 425.558594 58.734375 425.78125 59.464844 426.109375 C 71.214844 431.410156 82.167969 438.152344 93.40625 444.40625 C 94.847656 445.210938 96.261719 446.039062 98.058594 447.054688 C 93.796875 449.191406 89.828125 451.183594 85.757812 453.222656 C 85.257812 452.769531 84.757812 452.34375 84.292969 451.902344 C 76.417969 444.292969 68.515625 436.699219 60.664062 429.066406 C 59.429688 427.867188 58.378906 426.5 57.242188 425.21875 C 57.242188 425.21875 57.183594 425.277344 57.183594 425.277344 Z M 57.183594 425.277344 " fill-opacity="1" fill-rule="nonzero"/><path fill="#ffffff" d="M 487.585938 552.5 C 487.132812 551.460938 486.792969 550.644531 486.363281 549.65625 C 487.28125 549.238281 488.085938 548.886719 488.894531 548.519531 C 490.664062 547.738281 492.25 546.722656 493.363281 545.085938 C 494.511719 543.402344 494.511719 541.644531 493.59375 539.921875 C 492.667969 538.1875 491.203125 537.246094 489.160156 537.269531 C 486.78125 537.296875 484.839844 538.308594 483.128906 539.835938 C 482.394531 540.484375 481.847656 541.335938 481.039062 542.300781 C 480.101562 541.191406 479.429688 540.398438 478.671875 539.503906 C 481.96875 535.902344 485.667969 533.484375 490.566406 533.398438 C 493.546875 533.351562 495.84375 534.65625 497.332031 537.246094 C 498.871094 539.933594 498.710938 542.632812 497.101562 545.234375 C 496.585938 546.0625 495.953125 546.820312 495.257812 547.761719 C 496.246094 547.921875 497.039062 548.117188 497.832031 548.175781 C 503.925781 548.59375 508.007812 556.457031 503.597656 562.453125 C 501.042969 565.933594 497.332031 567.535156 493.191406 568.144531 C 491.519531 568.390625 489.785156 568.179688 487.917969 568.179688 C 487.917969 567.046875 487.917969 566.09375 487.917969 564.8125 C 488.78125 564.8125 489.664062 564.8125 490.542969 564.8125 C 492.910156 564.796875 495.144531 564.273438 497.222656 563.136719 C 500.066406 561.585938 501.3125 559.058594 500.75 556.128906 C 500.214844 553.332031 497.953125 551.253906 494.792969 551.035156 C 493.351562 550.9375 491.847656 551.304688 490.394531 551.570312 C 489.527344 551.730469 488.699219 552.121094 487.585938 552.5 Z M 487.585938 552.5 " fill-opacity="1" fill-rule="nonzero"/><path fill="#ffffff" d="M 223.140625 475.15625 C 224.132812 475.15625 224.691406 475.15625 225.265625 475.15625 C 230.6875 475.21875 233.851562 480.53125 231.277344 485.304688 C 230.8125 486.160156 230.164062 486.953125 229.46875 487.648438 C 227.246094 489.898438 224.570312 491.507812 221.652344 493.097656 C 216.851562 486.125 212.136719 479.246094 207.4375 472.394531 C 209.242188 469.402344 214.628906 465.949219 217.804688 465.691406 C 221.773438 465.363281 224.972656 469.234375 223.863281 473.042969 C 223.679688 473.667969 223.433594 474.277344 223.140625 475.15625 Z M 217.109375 480.957031 C 219.171875 483.960938 220.980469 486.585938 222.75 489.175781 C 225.167969 488.332031 227.257812 486.710938 228.320312 485.011719 C 229.234375 483.558594 229.296875 482.082031 228.539062 480.542969 C 227.332031 478.097656 224.886719 477.011719 222.3125 478.074219 C 220.601562 478.785156 219.039062 479.871094 217.109375 480.957031 Z M 215.839844 479.1875 C 217.121094 478.234375 218.195312 477.464844 219.246094 476.660156 C 219.636719 476.351562 219.992188 476 220.308594 475.621094 C 221.617188 474.058594 221.714844 471.945312 220.601562 470.332031 C 219.378906 468.5625 217.757812 468.097656 215.59375 468.964844 C 213.910156 469.636719 212.417969 470.613281 211.074219 472.03125 C 212.675781 474.4375 214.175781 476.695312 215.839844 479.1875 Z M 215.839844 479.1875 " fill-opacity="1" fill-rule="nonzero"/><path fill="#ffffff" d="M 374.082031 517.65625 C 373.75 518.644531 373.46875 519.488281 373.214844 520.269531 C 364.824219 519.511719 357.09375 512.84375 357.667969 504.761719 C 358.15625 497.773438 363.320312 491.019531 369.878906 489.457031 C 371.761719 489.003906 373.859375 488.933594 375.777344 489.238281 C 380.148438 489.957031 383.765625 492.242188 386.832031 495.539062 C 386.183594 496.371094 385.609375 497.101562 384.949219 497.945312 C 384.082031 497.128906 383.546875 496.613281 383.019531 496.125 C 380.636719 493.902344 377.804688 492.609375 374.59375 492.277344 C 372.308594 492.046875 370.097656 492.546875 368.21875 493.902344 C 364.394531 496.664062 362.125 500.4375 361.648438 505.125 C 361.269531 508.972656 362.820312 512.074219 365.933594 514.371094 C 368.304688 516.117188 370.992188 517.121094 374.082031 517.65625 Z M 374.082031 517.65625 " fill-opacity="1" fill-rule="nonzero"/><path fill="#ffffff" d="M 741.160156 623.6875 C 726.285156 618.839844 711.628906 614.066406 696.730469 609.214844 C 697.585938 607.996094 698.292969 607.398438 699.40625 607.921875 C 700.492188 608.433594 701.273438 607.972656 702.140625 607.382812 C 704.863281 605.515625 707.613281 603.683594 710.519531 601.730469 C 711.558594 604.355469 713.316406 605.710938 716.417969 605.136719 C 715.929688 607.800781 715.503906 610.207031 715.027344 612.820312 C 716.125 613.257812 717.164062 613.722656 718.238281 614.089844 C 724.453125 616.140625 730.671875 618.15625 736.886719 620.195312 C 737.828125 620.5 738.78125 620.832031 739.671875 621.246094 C 740.476562 621.625 741.382812 622.015625 741.160156 623.6875 Z M 741.160156 623.6875 " fill-opacity="1" fill-rule="nonzero"/><path fill="#ffffff" d="M 76.980469 467.121094 C 75.832031 464.652344 74.867188 462.578125 73.851562 460.402344 C 75.355469 459.230469 76.769531 458.121094 78.445312 456.8125 C 73.558594 449.324219 68.746094 441.960938 63.933594 434.597656 C 64.058594 434.5 64.167969 434.390625 64.289062 434.292969 C 71.019531 440.972656 77.75 447.640625 84.476562 454.320312 C 82.011719 458.535156 79.59375 462.648438 76.980469 467.121094 Z M 76.980469 467.121094 " fill-opacity="1" fill-rule="nonzero"/><path fill="#ffffff" d="M 83.292969 478.710938 C 80.203125 483.875 76.085938 487.648438 69.46875 488.222656 C 69.945312 487.003906 70.882812 487.101562 71.605469 486.90625 C 76.625 485.523438 80.238281 482.472656 82.597656 477.707031 C 81.816406 476.425781 80.949219 475.121094 80.214844 473.75 C 79.46875 472.382812 78.894531 470.941406 78.6875 468.941406 C 80.214844 470.089844 80.117188 471.625 80.789062 472.738281 C 81.507812 473.921875 82.179688 475.144531 83.035156 476.621094 C 83.632812 475.875 83.988281 475.363281 84.417969 474.925781 C 85.871094 473.347656 87.25 471.675781 88.847656 470.269531 C 90.167969 469.109375 91.878906 468.609375 93.6875 468.535156 C 96.3125 468.4375 98.472656 469.28125 99.683594 471.710938 C 100.914062 474.203125 100.78125 476.695312 99.046875 478.980469 C 96.664062 482.117188 92.390625 483.328125 88.53125 481.726562 C 86.785156 480.992188 85.234375 479.847656 83.292969 478.710938 Z M 84.109375 477.441406 C 85.929688 479.664062 88.164062 480.796875 90.777344 481.152344 C 93.671875 481.542969 96.203125 480.75 98.09375 478.441406 C 99.683594 476.511719 99.804688 473.789062 98.511719 471.710938 C 97.363281 469.878906 95.066406 468.988281 92.609375 469.722656 C 91.21875 470.136719 89.851562 470.84375 88.667969 471.6875 C 86.664062 473.09375 85.34375 475.109375 84.109375 477.441406 Z M 84.109375 477.441406 " fill-opacity="1" fill-rule="nonzero"/><path fill="#ffffff" d="M 60.257812 488.285156 C 59 487.796875 57.914062 487.453125 56.886719 486.976562 C 51.710938 484.609375 49.023438 479.539062 50.207031 474.460938 C 50.890625 471.515625 53.296875 469.378906 56.300781 469.074219 C 63.640625 468.304688 68.625 474.605469 66.339844 481.910156 C 65.742188 483.839844 64.570312 485.585938 63.65625 487.453125 C 64.128906 487.613281 64.730469 487.808594 65.5 488.054688 C 65.207031 488.308594 64.996094 488.601562 64.875 488.578125 C 62.726562 488.066406 61.089844 489.101562 59.367188 490.152344 C 56.691406 491.777344 53.675781 492.339844 50.585938 492.558594 C 50.304688 492.585938 50.011719 492.425781 49.683594 492.132812 C 53.1875 490.984375 57.097656 490.949219 60.257812 488.285156 Z M 65.78125 478.464844 C 65.753906 474.15625 63.421875 471.152344 59.34375 470.1875 C 54.582031 469.0625 50.671875 472.359375 50.976562 477.246094 C 51.296875 482.265625 55.777344 486.769531 60.796875 487.199219 C 61.773438 487.285156 62.347656 486.867188 62.910156 486.207031 C 64.789062 483.949219 65.792969 481.398438 65.78125 478.464844 Z M 65.78125 478.464844 " fill-opacity="1" fill-rule="nonzero"/><path fill="#ffffff" d="M 75.941406 641.335938 C 75.5625 641.679688 75.160156 642.058594 74.511719 642.65625 C 69.601562 637.195312 64.605469 631.96875 60.050781 626.214844 C 60.832031 625.214844 61.503906 624.519531 62.496094 625.644531 C 66.953125 630.746094 71.386719 635.878906 75.832031 640.996094 C 75.878906 641.054688 75.878906 641.152344 75.941406 641.335938 Z M 75.941406 641.335938 " fill-opacity="1" fill-rule="nonzero"/><path fill="#ffffff" d="M 736.070312 576.558594 C 735.921875 578.136719 735.8125 579.34375 735.675781 580.664062 C 732.832031 580.820312 734.445312 578.304688 733.332031 577.195312 C 731.78125 576.609375 729.71875 577.609375 727.75 576.742188 C 729.21875 575.289062 736.507812 574.445312 741.0625 574.972656 C 741.394531 575.65625 741.210938 576.070312 740.429688 576.144531 C 739.0625 576.289062 737.679688 576.414062 736.070312 576.558594 Z M 736.070312 576.558594 " fill-opacity="1" fill-rule="nonzero"/><path fill="#ffffff" d="M 722.488281 554.125 C 724.0625 554.085938 725.503906 555.417969 725.601562 557.019531 C 725.699219 558.519531 724.015625 560.230469 722.453125 560.195312 C 720.984375 560.167969 719.507812 558.605469 719.519531 557.09375 C 719.519531 555.40625 720.777344 554.160156 722.488281 554.125 Z M 722.488281 554.125 " fill-opacity="1" fill-rule="nonzero"/><path fill="#ffffff" d="M 716.917969 601.265625 C 716.929688 602.363281 716.0625 603.21875 714.878906 603.28125 C 713.644531 603.34375 712.691406 602.4375 712.667969 601.179688 C 712.65625 600.238281 713.730469 599.152344 714.71875 599.09375 C 715.832031 599.042969 716.917969 600.105469 716.917969 601.265625 Z M 716.917969 601.265625 " fill-opacity="1" fill-rule="nonzero"/><path fill="#ffffff" d="M 543.617188 434.328125 C 539.453125 434.339844 536.09375 431.105469 536.070312 427.0625 C 536.058594 422.886719 539.453125 419.429688 543.59375 419.429688 C 547.625 419.429688 550.957031 422.800781 550.984375 426.902344 C 551.007812 431.042969 547.757812 434.316406 543.617188 434.328125 Z M 543.617188 434.328125 " fill-opacity="1" fill-rule="nonzero"/><path fill="#ffffff" d="M 42.769531 593.792969 C 43.441406 593.792969 44.066406 593.792969 44.664062 593.792969 C 44.761719 594 44.90625 594.171875 44.871094 594.28125 C 43.171875 599.554688 41.476562 604.820312 39.742188 610.082031 C 39.59375 610.535156 39.230469 610.902344 38.9375 611.367188 C 37.59375 611.097656 37.359375 610.414062 37.75 609.230469 C 38.898438 605.773438 39.960938 602.292969 41.074219 598.824219 C 41.609375 597.175781 42.183594 595.539062 42.769531 593.792969 Z M 42.769531 593.792969 " fill-opacity="1" fill-rule="nonzero"/><path fill="#ffffff" d="M 85.636719 571.039062 C 84.464844 571.429688 83.425781 571.894531 82.339844 572.136719 C 78.46875 572.992188 74.585938 573.773438 70.6875 574.582031 C 69.957031 574.726562 69.199219 574.933594 68.492188 574.875 C 68.050781 574.835938 67.378906 574.375 67.304688 574.007812 C 67.234375 573.617188 67.710938 573.078125 68.050781 572.699219 C 68.246094 572.492188 68.648438 572.429688 68.96875 572.371094 C 73.753906 571.441406 78.542969 570.539062 83.328125 569.609375 C 84.304688 569.414062 85.171875 569.339844 85.636719 571.039062 Z M 85.636719 571.039062 " fill-opacity="1" fill-rule="nonzero"/><path fill="#ffffff" d="M 76.84375 598.261719 C 75.878906 599.410156 75.074219 599.359375 74.167969 598.273438 C 71.042969 594.535156 67.855469 590.859375 64.742188 587.109375 C 64.226562 586.488281 63.152344 585.695312 64.105469 584.816406 C 65.191406 583.8125 65.890625 585 66.5 585.695312 C 69.738281 589.445312 72.9375 593.21875 76.125 597.003906 C 76.441406 597.371094 76.613281 597.847656 76.84375 598.261719 Z M 76.84375 598.261719 " fill-opacity="1" fill-rule="nonzero"/><path fill="#ffffff" d="M 87.738281 596.578125 C 86.347656 596.160156 86.078125 595.515625 86.457031 594.414062 C 88.054688 589.726562 89.59375 585 91.171875 580.296875 C 91.328125 579.832031 91.5 579.320312 91.828125 578.988281 C 92.0625 578.757812 92.625 578.625 92.929688 578.746094 C 93.210938 578.855469 93.464844 579.332031 93.515625 579.671875 C 93.574219 580.050781 93.441406 580.492188 93.308594 580.882812 C 91.757812 585.597656 90.207031 590.300781 88.628906 595 C 88.445312 595.527344 88.082031 595.976562 87.738281 596.578125 Z M 87.738281 596.578125 " fill-opacity="1" fill-rule="nonzero"/><path fill="#ffffff" d="M 673.976562 429.480469 C 675.445312 426.707031 678.914062 424.984375 680.902344 425.585938 C 681.171875 425.667969 681.5 425.949219 681.574219 426.207031 C 681.648438 426.464844 681.5 426.878906 681.304688 427.074219 C 681.097656 427.28125 680.71875 427.332031 680.402344 427.429688 C 678.425781 428.050781 676.457031 428.6875 673.976562 429.480469 Z M 673.976562 429.480469 " fill-opacity="1" fill-rule="nonzero"/></svg>